<?xml version="1.0" standalone="no"?>
<!DOCTYPE svg PUBLIC "-//W3C//DTD SVG 20010904//EN"
 "http://www.w3.org/TR/2001/REC-SVG-20010904/DTD/svg10.dtd">
<svg version="1.0" xmlns="http://www.w3.org/2000/svg"
 width="700.000000pt" height="700.000000pt" viewBox="0 0 700.000000 700.000000"
 preserveAspectRatio="xMidYMid meet">
<metadata>
Created by potrace 1.14, written by Peter Selinger 2001-2017
</metadata>
<g transform="translate(0.000000,700.000000) scale(0.100000,-0.100000)"
fill="#000000" stroke="none">
<path d="M170 3485 l0 -2735 540 0 540 0 0 860 0 860 463 0 c472 0 561 5 748
40 207 39 459 125 608 206 193 106 440 344 569 549 120 191 241 577 271 861 8
75 8 73 9 -61 1 -77 -5 -851 -12 -1720 -8 -869 -12 -1582 -9 -1585 2 -2 244
-6 537 -8 l533 -4 6 473 c4 261 7 668 7 904 0 237 3 508 7 603 l6 174 737 -8
737 -7 6 99 c4 54 7 286 7 515 l0 417 -222 6 c-123 3 -457 8 -742 11 -286 2
-520 6 -520 7 -1 2 0 279 2 617 l2 614 915 -7 915 -8 0 515 0 515 -142 6
c-220 8 -2740 28 -2747 21 -3 -4 -9 -347 -12 -763 -4 -416 -8 -800 -9 -852
l-3 -95 -8 85 c-38 373 -182 714 -413 975 -88 100 -269 259 -371 326 -280 185
-620 287 -1065 318 -83 6 -519 11 -1017 11 l-873 0 0 -2735z m1976 1684 c164
-23 343 -99 468 -198 99 -79 147 -163 193 -341 44 -166 42 -508 -3 -683 -18
-71 -92 -196 -153 -260 -125 -130 -342 -170 -846 -156 -148 4 -334 8 -412 8
l-143 1 0 820 0 820 409 0 c239 0 442 -5 487 -11z"/>
</g>
</svg>
